# xmcd
#
# Track frame offsets:
#	182
#	20520
#	36285
#	51512
#	71365
#	88167
#	105577
#	120795
#	137300
#	158605
#	179317
#	197405
#	211980
#	232400
#	250885
#
# Disc length: 3565 seconds
#
# Revision: 0
# Processed by: cddbd v1.5.1PL2 Copyright (c) Steve Scherf et al.
# Submitted via: audiograbber 1.83.01
#
DISCID=c60deb0f
DTITLE=Swiss German Dixie Corporation - Swiss German Dixie Corporation I
DYEAR=1900
DGENRE=Country
TTITLE0=Carry Me Back To Old Virginia
TTITLE1=Hello Dolly
TTITLE2=Storyville Blues
TTITLE3=Black And Blue
TTITLE4=Jazz Me Blues
TTITLE5=Fidgety Feet
TTITLE6=Give Me Your Telephone Number
TTITLE7=Royal Garden Blues
TTITLE8=Bourbon Street Parade
TTITLE9=I Can't Give You Anything But Love
TTITLE10=When You're Smiling
TTITLE11=South
TTITLE12=Bill Bailey
TTITLE13=Pagan Love Song
TTITLE14=Avalon
EXTD=
EXTT0=
EXTT1=
EXTT2=
EXTT3=
EXTT4=
EXTT5=
EXTT6=
EXTT7=
EXTT8=
EXTT9=
EXTT10=
EXTT11=
EXTT12=
EXTT13=
EXTT14=
PLAYORDER=
